<?xml version="1.0" standalone="no"?>
<!DOCTYPE svg PUBLIC "-//W3C//DTD SVG 20010904//EN"
 "http://www.w3.org/TR/2001/REC-SVG-20010904/DTD/svg10.dtd">
<svg version="1.0" xmlns="http://www.w3.org/2000/svg"
 width="426.000000pt" height="221.000000pt" viewBox="0 0 426.000000 221.000000"
 preserveAspectRatio="xMidYMid meet">

<g transform="translate(0.000000,221.000000) scale(0.100000,-0.100000)"
fill="#000000" stroke="none">
<path d="M170 1125 l0 -645 363 0 363 0 133 -150 c73 -82 140 -155 148 -161
13 -11 14 44 11 472 -3 471 -4 485 -25 531 -11 25 -33 54 -47 63 -98 64 -249
17 -307 -97 -27 -52 -39 -168 -39 -370 l0 -168 -65 0 -65 0 0 385 0 385 65 0
65 0 0 -45 c0 -25 4 -45 8 -45 5 0 21 13 36 29 49 51 119 76 216 76 80 0 90
-2 140 -33 30 -19 67 -50 83 -70 55 -72 60 -106 65 -469 l4 -333 84 0 85 0 -3
518 c-3 488 -4 520 -23 566 -29 72 -93 138 -167 172 l-63 29 -532 3 -533 3 0
-646z m293 533 c34 -18 46 -40 47 -85 0 -34 -5 -46 -31 -67 -71 -60 -172 -1
-155 90 12 60 83 92 139 62z m17 -673 l0 -385 -65 0 -65 0 0 385 0 385 65 0
65 0 0 -385z"/>
<path d="M3968 1514 c-34 -18 -48 -43 -48 -86 0 -68 66 -111 135 -88 43 14 65
44 65 88 0 44 -14 68 -50 87 -36 19 -67 19 -102 -1z"/>
<path d="M1779 1477 c-29 -16 -54 -40 -74 -72 l-30 -48 -3 -319 -3 -318 111 0
110 0 0 263 c0 278 4 303 46 295 18 -3 19 -15 22 -281 l2 -277 110 0 110 0 0
254 c0 273 5 310 43 304 l22 -3 3 -277 2 -278 116 0 116 0 -4 313 c-3 273 -5
317 -21 352 -38 84 -89 115 -192 115 -76 0 -132 -23 -167 -70 l-22 -30 -40 39
c-56 53 -75 61 -149 61 -48 0 -75 -6 -108 -23z"/>
<path d="M3590 1235 c0 -167 -4 -263 -11 -279 -27 -58 -118 -54 -144 7 -27 64
19 124 88 113 l38 -6 -3 107 -3 108 -65 -1 c-108 -1 -198 -62 -250 -170 -31
-62 -28 -174 6 -242 62 -126 209 -188 347 -148 78 23 136 70 172 141 l30 59 3
283 3 283 -105 0 -106 0 0 -255z"/>
<path d="M2790 1281 c-77 -24 -147 -80 -183 -146 -32 -58 -32 -212 0 -271 26
-48 92 -111 139 -130 84 -35 225 -24 283 23 l22 18 -55 67 -56 67 -34 -14
c-76 -32 -124 28 -118 147 1 14 14 40 28 57 33 39 80 42 112 8 35 -37 28 -47
-32 -47 -50 0 -54 -2 -60 -26 -4 -14 -4 -34 -1 -45 6 -18 18 -19 167 -19 l161
0 -6 54 c-6 65 -38 140 -75 180 -45 48 -137 86 -207 85 -33 0 -71 -4 -85 -8z"/>
<path d="M3920 1000 l0 -280 100 0 100 0 0 280 0 280 -100 0 -100 0 0 -280z"/>
</g>
</svg>
